<?xml version="1.0" encoding="UTF-8"?>
<!-- This file is generated by npm run build:icons -->
<svg
  xmlns="http://www.w3.org/2000/svg"
  xmlns:xlink="http://www.w3.org/1999/xlink"
  width="0"
  height="0"
>
  <defs>
    <symbol
      id="spin"
      fill="none"
      viewBox="0 0 24 24"
      stroke-width="1.5"
      stroke="currentColor"
    >
      <path
        stroke-linecap="round"
        stroke-linejoin="round"
        d="M16.023 9.348h4.992v-.001M2.985 19.644v-4.992m0 0h4.992m-4.993 0l3.181 3.183a8.25 8.25 0 0013.803-3.7M4.031 9.865a8.25 8.25 0 0113.803-3.7l3.181 3.182m0-4.991v4.99"
      />
    </symbol>

    <symbol
      id="plus"
      fill="none"
      viewBox="0 0 24 24"
      stroke-width="3.5"
      stroke="currentColor"
    >
      <path
        stroke-linecap="round"
        stroke-linejoin="round"
        d="M12 4.5v15m7.5-7.5h-15"
      />
    </symbol>

    <symbol
      id="pin"
      fill="none"
      viewBox="0 0 24 24"
      stroke-width="1.5"
      stroke="currentColor"
    >
      <path
        stroke-linecap="round"
        stroke-linejoin="round"
        d="M15 10.5a3 3 0 11-6 0 3 3 0 016 0z"
      />
      <path
        stroke-linecap="round"
        stroke-linejoin="round"
        d="M19.5 10.5c0 7.142-7.5 11.25-7.5 11.25S4.5 17.642 4.5 10.5a7.5 7.5 0 1115 0z"
      />
    </symbol>
    <symbol
      id="mail"
      fill="none"
      viewBox="0 0 24 24"
      stroke-width="1.5"
      stroke="currentColor"
      class="w-6 h-6"
    >
      <path
        stroke-linecap="round"
        stroke-linejoin="round"
        d="M21.75 6.75v10.5a2.25 2.25 0 01-2.25 2.25h-15a2.25 2.25 0 01-2.25-2.25V6.75m19.5 0A2.25 2.25 0 0019.5 4.5h-15a2.25 2.25 0 00-2.25 2.25m19.5 0v.243a2.25 2.25 0 01-1.07 1.916l-7.5 4.615a2.25 2.25 0 01-2.36 0L3.32 8.91a2.25 2.25 0 01-1.07-1.916V6.75"
      />
    </symbol>

    <symbol
      id="bars"
      fill="none"
      viewBox="0 0 24 24"
      stroke-width="1.5"
      stroke="currentColor"
      class="w-6 h-6"
    >
      <path
        stroke-linecap="round"
        stroke-linejoin="round"
        d="M3.75 9h16.5m-16.5 6.75h16.5"
      />
    </symbol>
  </defs>
</svg>
